# xmcd
#
# Track frame offsets:
# 150
# 13583
# 31009
# 43749
# 59063
# 76588
# 89648
# 108248
# 123764
# 140690
# 152829
# 164015
# 181995
#
# Disc length: 2624 seconds
#
#
# Revision: 0
# Processed by: cddbd v1.5.2PL0 Copyright (c) Steve Scherf et al.
# Submitted via: Nero 7, 11, 10, 0 
#
DISCID=a60a3e0d
DTITLE=Jim's Combo - Tune Up
DYEAR=2010
DGENRE=Blues
TTITLE0=Ding Ding Diddy
TTITLE1=Flood
TTITLE2=Tune Up
TTITLE3=A Woman Like That
TTITLE4=Can't Quit
TTITLE5=Ride 'Em On Down
TTITLE6=Lonesome Whistle Blues
TTITLE7=Plaything
TTITLE8=Something You Need
TTITLE9=Pokerface
TTITLE10=Walked All Night
TTITLE11=You Don't Love Me
TTITLE12=Good As Gold
EXTD=
EXTT0=Ding Ding Diddy
EXTT1=Flood
EXTT2=Tune Up
EXTT3=A Woman Like That
EXTT4=Can't Quit
EXTT5=Ride 'Em On Down
EXTT6=Lonesome Whistle Blues
EXTT7=Plaything
EXTT8=Something You Need
EXTT9=Pokerface
EXTT10=Walked All Night
EXTT11=You Don't Love Me
EXTT12=Good As Gold
PLAYORDER=
